<svg width="120" height="120" viewBox="0 0 120 120" fill="none" xmlns="http://www.w3.org/2000/svg">
<path d="M59.8898 87.7709C85.3376 87.7709 105.967 68.1227 105.967 43.8855C105.967 19.6482 85.3376 0 59.8898 0C34.442 0 13.8125 19.6482 13.8125 43.8855C13.8125 68.1227 34.442 87.7709 59.8898 87.7709Z" fill="#F7A400"/>
<path d="M7.29934 117.969C6.08678 117.132 5.34924 116.157 4.94922 115.507C41.4886 80.5711 78.0279 45.6603 114.58 10.7369C115.13 10.2119 115.68 9.68692 116.23 9.16195C116.93 8.47448 118.042 7.52452 118.817 7.81201C119.83 8.18699 119.768 10.4369 119.755 11.1744C119.68 15.2992 119.743 41.2355 119.83 77.3088C120.193 92.6581 119.943 104.42 119.405 110.107C119.28 111.42 118.992 114.007 117.055 116.169C114.78 118.707 111.467 119.532 109.992 119.532H12.4871C11.6246 119.532 9.41194 119.419 7.31184 117.957L7.29934 117.969Z" fill="#27104E"/>
<path d="M115.404 117.632C115.904 117.232 116.617 116.582 117.292 115.607C76.5773 77.4966 6.09869 11.6122 3.53606 10.1747C1.98598 9.29979 1.18594 9.72477 1.18594 9.72477C0.610908 10.0248 0.24839 10.6372 0.24839 11.2997V11.9747C-0.164131 65.5347 -0.0391248 104.62 0.4484 110.57C0.585907 112.245 1.03593 114.645 2.82352 116.632C5.12364 119.17 8.4613 119.995 9.94888 119.995C32.3125 119.995 104.779 120.007 108.266 119.995C108.291 119.995 108.416 119.995 108.591 119.995C109.416 119.97 112.642 119.845 115.392 117.645L115.404 117.632Z" fill="#9854CB"/>
</svg>
