<svg width="983" height="876" viewBox="0 0 983 876" fill="none" xmlns="http://www.w3.org/2000/svg">
<path d="M957.52 116.704C939.52 -89.8565 406.271 -19.3095 128.524 305.264C-304.377 737.549 483.646 1139.54 622.519 652.204C761.393 164.867 975.52 323.264 957.52 116.704Z" fill="#F4E4FB" fill-opacity="0.49"/>
<g clip-path="url(#clip0_704_2748)">
<path d="M345.845 235.769C343.519 248.031 349.176 259.415 358.492 261.199C367.808 262.982 377.254 254.497 379.593 242.235C381.919 229.972 376.131 213.671 366.815 211.887C357.499 210.104 348.183 223.507 345.845 235.769Z" fill="#1C1A36"/>
<g opacity="0.4">
<path opacity="0.4" d="M514.378 771.403C717.275 771.403 881.755 753.641 881.755 731.731C881.755 709.82 717.275 692.059 514.378 692.059C311.481 692.059 147 709.82 147 731.731C147 753.641 311.481 771.403 514.378 771.403Z" fill="white"/>
</g>
<path d="M364.895 263.508C363.993 263.508 363.079 263.429 362.177 263.246C361.472 263.115 361.001 262.419 361.145 261.711C361.289 261.003 361.955 260.544 362.674 260.675C371.271 262.328 380.051 254.275 382.246 242.747C384.389 231.443 379.293 215.613 370.5 213.934C369.794 213.803 369.324 213.108 369.468 212.4C369.598 211.692 370.291 211.22 370.996 211.364C381.331 213.344 387.237 230.551 384.82 243.246C382.586 255.023 373.988 263.508 364.908 263.508H364.895Z" fill="#1C1A35"/>
<path d="M357.356 221.842C354.965 232.189 354.652 235.77 355.449 237.422C356.246 239.062 358.689 239.022 361.772 240.36C364.856 241.698 353.123 261.658 337.575 257.553C322.014 253.461 316.801 237.973 315.755 233.645C314.723 229.317 322.719 236.071 325.724 228.071C328.729 220.071 331.63 211.311 343.637 213.239C355.645 215.166 358.179 218.248 357.356 221.829V221.842Z" fill="#E66E54"/>
<g opacity="0.42">
<path opacity="0.42" d="M356.232 227.336C355.161 232.949 348.406 236.372 341.128 234.969C333.851 233.579 328.82 227.9 329.892 222.287C330.963 216.674 337.718 213.264 344.996 214.654C352.273 216.044 357.303 221.723 356.232 227.336Z" fill="#873A34"/>
</g>
<path d="M309.143 188.387C305.628 206.853 324.586 224.518 340.905 227.639C357.224 230.761 371.753 224.23 378.691 199.469C383.76 181.371 383.212 152.256 360.948 150.236C344.394 148.728 312.658 169.921 309.143 188.387Z" fill="#E66E54"/>
<path d="M362.386 168.034C375.621 168.847 377.45 174.25 380.913 173.804C384.388 173.358 393.325 167.378 392.123 156.086C390.934 144.794 383.16 132.873 365.051 130.512C352.025 128.807 337.025 131.483 329.186 135.575C321.36 139.666 313.782 148.178 311.391 153.961C307.955 162.25 298.195 145.896 284.541 157.568C266.811 172.742 282.464 189.961 276.454 190.302C270.443 190.643 230.136 185.896 211.87 198.053C193.592 210.197 201.575 228.361 203.887 230.932C211.648 239.574 180.97 241.319 184.054 266.132C186.053 282.223 199.184 292.138 219.631 291.955C235.833 291.81 289.911 234.892 320.393 240.728C329.722 242.512 336.437 217.148 324.705 202.145C316.865 192.112 348.066 167.115 362.386 167.994V168.034Z" fill="#1C1A36"/>
<path d="M334.843 195.731C334.032 200.006 328.728 202.577 322.979 201.475C317.243 200.374 313.245 196.019 314.055 191.757C314.865 187.482 317.779 179.98 323.515 181.082C329.25 182.183 335.653 191.469 334.843 195.731Z" fill="#E66E54"/>
<path d="M199.784 232.203C199.432 232.203 199.066 232.058 198.818 231.77C197.315 230.091 193.539 222.694 194.663 213.711C195.656 205.881 200.033 199.311 207.702 194.209C224.256 183.18 256.188 184.662 271.541 185.383C274.611 185.527 277.028 185.632 278.126 185.58C278.844 185.553 279.458 186.091 279.497 186.812C279.537 187.534 278.988 188.15 278.269 188.19C277.041 188.268 274.676 188.15 271.41 187.993C257.521 187.337 224.988 185.829 209.139 196.386C202.136 201.055 198.138 206.996 197.25 214.039C196.231 222.091 199.68 228.819 200.751 230.012C201.235 230.55 201.196 231.376 200.66 231.862C200.412 232.085 200.098 232.203 199.784 232.203Z" fill="#1C1A35"/>
<path d="M361.798 209.882C361.119 209.882 360.544 209.384 360.465 208.689C360.374 207.941 360.897 207.272 361.641 207.18C363.954 206.905 365.313 206.446 365.666 205.843C366.214 204.898 365.143 202.223 363.771 198.852C363.275 197.62 362.713 196.23 362.125 194.682C361.863 193.987 362.203 193.2 362.909 192.938C363.601 192.675 364.385 193.016 364.646 193.725C365.221 195.246 365.783 196.61 366.28 197.83C368.122 202.38 369.232 205.121 368.004 207.22C367.142 208.689 365.391 209.449 361.968 209.869C361.916 209.869 361.863 209.869 361.811 209.869L361.798 209.882Z" fill="#873A34"/>
<path d="M356.989 193.292C356.61 195.286 355.382 196.728 354.246 196.505C353.109 196.282 352.495 194.499 352.874 192.505C353.253 190.512 354.481 189.069 355.617 189.292C356.754 189.515 357.368 191.299 356.989 193.292Z" fill="#471C1F"/>
<path d="M359.995 186C359.799 186 359.603 185.96 359.407 185.869C357.369 184.885 350.98 183.941 346.446 184.242C345.689 184.295 345.061 183.731 345.009 182.983C344.957 182.236 345.519 181.593 346.264 181.541C350.967 181.226 357.918 182.144 360.57 183.429C361.237 183.757 361.524 184.557 361.197 185.239C360.962 185.724 360.479 186 359.982 186H359.995Z" fill="#1C1A35"/>
<path d="M380.339 188.321C380.143 188.321 379.947 188.281 379.751 188.19C377.713 187.206 373.127 186.721 368.593 187.022C367.822 187.062 367.208 186.511 367.156 185.763C367.103 185.016 367.665 184.373 368.41 184.321C373.519 183.98 378.418 184.544 380.914 185.75C381.58 186.078 381.868 186.878 381.541 187.56C381.306 188.045 380.822 188.321 380.326 188.321H380.339Z" fill="#1C1A35"/>
<g opacity="0.28">
<path opacity="0.28" d="M338.972 206.551C338.58 208.623 340.671 210.76 343.636 211.324C346.602 211.888 349.333 210.682 349.725 208.61C350.117 206.538 348.026 204.4 345.061 203.836C342.095 203.272 339.364 204.479 338.972 206.551Z" fill="#873A34"/>
</g>
<g opacity="0.42">
<path opacity="0.42" d="M326.103 189.383C325.698 186.616 318.251 187.049 320.106 192.045C321.961 197.042 322.118 198.275 324.026 196.36" fill="#873A34"/>
</g>
<path d="M373.1 195.679C372.721 197.672 371.493 199.115 370.356 198.892C369.219 198.669 368.605 196.886 368.984 194.892C369.363 192.899 370.591 191.456 371.728 191.679C372.864 191.902 373.479 193.686 373.1 195.679Z" fill="#471C1F"/>
<path d="M479.478 407.665C487.749 412.137 490.192 412.793 493.694 409.134C496.189 406.524 496.764 404.216 501.415 403.18C509.085 401.462 509.398 400.478 507.87 404.032C506.89 406.301 503.467 409.934 512.025 412.623C514.677 413.462 518.009 415.101 517.982 417.934C517.943 422.537 514.442 421.121 514.063 421.882C513.671 422.642 515.082 424.282 514.246 425.619C513.409 426.957 512.025 426.432 511.476 427.272C510.914 428.111 512.534 429.068 511.685 430.708C510.822 432.347 508.627 431.272 508.053 432.413C507.478 433.554 509.046 434.55 508.144 435.482C504.852 438.878 497.522 437.829 493.498 435.062C491.485 433.672 486.886 429.659 485.044 426.341C483.842 424.19 475.454 423.049 473.364 422.026C471.273 421.003 476.316 405.973 479.478 407.692V407.665Z" fill="#E66E54"/>
<path d="M508.052 433.724C507.922 433.724 507.791 433.711 507.66 433.659L499.782 431.167C499.089 430.944 498.71 430.209 498.932 429.528C499.155 428.832 499.886 428.452 500.566 428.675L508.444 431.167C509.137 431.39 509.516 432.124 509.293 432.806C509.124 433.37 508.601 433.724 508.052 433.724Z" fill="#873A34"/>
<path d="M510.953 428.425C510.822 428.425 510.691 428.412 510.561 428.36L502.682 425.868C501.99 425.645 501.611 424.911 501.833 424.229C502.055 423.534 502.787 423.153 503.466 423.376L511.345 425.868C512.037 426.091 512.416 426.825 512.194 427.507C512.024 428.071 511.501 428.425 510.953 428.425Z" fill="#873A34"/>
<path d="M513.423 423.179C513.293 423.179 513.162 423.166 513.031 423.114L505.153 420.622C504.46 420.399 504.081 419.665 504.304 418.983C504.526 418.288 505.257 417.907 505.937 418.13L513.815 420.622C514.508 420.845 514.887 421.579 514.664 422.261C514.495 422.825 513.972 423.179 513.423 423.179Z" fill="#873A34"/>
<path d="M432.666 341.724C448.018 363.796 482.668 399.626 487.097 404.649C491.474 409.619 492.376 408.753 490.233 411.39C485.19 417.58 477.207 426.144 477.207 426.144C477.207 426.144 475.547 429.239 471.327 426.078C467.577 423.271 428.302 397.226 406.888 380.517C404.275 378.485 401.936 376.583 399.95 374.878C395.691 371.219 390.255 365.055 384.493 357.304C358.271 322.039 325.254 254.249 365.013 243.495C414.505 230.092 417.327 319.639 432.666 341.711V341.724Z" fill="#9854CB"/>
<path d="M381.291 242.656C370.826 240.217 363.065 239.535 357.42 239.076C352.834 238.696 345.897 298.656 345.583 326.302C345.269 353.948 345.753 393.882 345.478 396.518C345.204 399.154 381.291 409.922 389.366 400.282C393.311 395.574 385.289 327.679 388.595 300.125C391.731 273.935 398.107 246.565 381.291 242.656Z" fill="#27104E"/>
<path d="M311.554 312.937C316.672 286.03 296.315 259.521 266.086 253.727C235.856 247.933 207.201 265.049 202.082 291.956C196.964 318.863 217.32 345.373 247.55 351.166C277.78 356.96 306.435 339.844 311.554 312.937Z" fill="#1C1A36"/>
<path d="M370.513 335.718C366.175 343.351 358.414 359.705 357.408 361.252C355.736 363.81 357.029 363.364 354.403 363.429C344.029 363.692 303.657 365.239 293.518 364.426C292.368 364.334 284.385 317.816 295.386 303.338C299.528 297.895 307.942 269.908 311.509 257.436C314.488 247.062 310.046 240.754 310.568 240.688C317.232 239.993 321.204 239.915 321.935 239.915C322.667 239.915 325.372 248.793 339.874 248.977C349.752 249.095 355.187 243.416 357.421 239.088C357.67 238.603 357.644 238.774 359.669 239.088C363.81 239.731 364.751 239.666 367.835 240.098C369.795 240.374 369.808 244.793 369.951 246.852C370.056 248.413 379.711 319.574 370.526 335.718H370.513Z" fill="#F9F1E8"/>
<path d="M370.513 335.717C366.175 343.35 358.414 359.704 357.408 361.251C355.736 363.809 357.029 363.363 354.403 363.428C344.029 363.691 303.657 365.238 293.518 364.425C292.368 364.333 284.385 317.815 295.386 303.337C299.528 297.894 307.942 269.907 311.509 257.435C314.488 247.061 319.061 316.241 333.564 316.425C343.441 316.543 379.698 319.586 370.526 335.73L370.513 335.717Z" fill="#E0C1A2"/>
<path d="M340.201 249.738C340.084 249.738 339.979 249.738 339.861 249.738C327.371 249.581 323.137 243.64 321.543 241.397C321.439 241.24 321.348 241.108 321.269 241.017C320.89 240.794 320.629 240.374 320.629 239.889C320.629 239.168 321.217 238.577 321.935 238.577C322.746 238.577 323.151 239.141 323.66 239.876C325.045 241.817 328.716 246.971 339.888 247.115C350.627 247.299 355.122 240.125 356.246 237.935C356.572 237.292 357.356 237.043 358.009 237.371C358.65 237.699 358.898 238.499 358.571 239.141C357.278 241.646 352.169 249.738 340.201 249.738Z" fill="#293865"/>
<path d="M401.451 658.942C402 667.925 401.451 677.893 402.81 696.581C403.738 709.289 429.059 728.292 431.568 730.64C434.076 732.988 421.011 735.833 415.654 735.991C410.297 736.148 402.144 734.732 395.846 730.26C389.549 725.788 379.266 715.112 378.09 708.935C376.927 702.771 380.037 700.004 380.102 695.899C380.168 691.794 379.384 668.188 379.384 662.758C379.384 656.358 376.757 653.316 382.389 652.135C388.02 650.955 401.164 654.338 401.438 658.916L401.451 658.942Z" fill="#E66E54"/>
<path d="M377.556 717.146C378.457 723.822 381.319 742.576 381.319 742.576L391.523 742.76L390.948 717.383L377.556 717.146Z" fill="#1C1A36"/>
<path d="M381.344 697.749C378.927 697.54 367.338 712.635 377.974 720.11C388.609 727.585 391.261 726.628 392.594 727.73C393.927 728.831 393.326 713.461 390.477 708.661C387.629 703.874 385.042 698.064 381.358 697.736L381.344 697.749Z" fill="#1C1A36"/>
<path d="M445.641 742.681C439.382 742.668 407.345 743.167 406.091 741.986C404.837 740.806 398.186 733.068 398.657 732.019C399.127 730.97 420.15 726.091 425.493 726.563C430.837 727.035 432.719 729.632 436.011 730.852C439.304 732.072 445.301 732.675 445.771 734.485C446.255 736.281 449.704 742.694 445.628 742.681H445.641Z" fill="#1C1A36"/>
<path d="M257.665 647.298C253.967 655.494 240.862 680.032 242.221 698.72C243.149 711.429 263.583 729.278 266.105 731.625C268.614 733.973 255.548 736.819 250.191 736.976C244.834 737.133 236.681 735.717 230.384 731.245C224.086 726.773 213.803 716.097 212.628 709.92C211.465 703.756 216.273 698.707 217.958 694.97C222.414 685.12 227.81 657.055 227.81 651.639C227.81 645.239 261.48 638.839 257.665 647.284V647.298Z" fill="#E66E54"/>
<g opacity="0.42">
<path opacity="0.42" d="M401.923 661.461H379.567V672.136H401.923V661.461Z" fill="#873A34"/>
</g>
<g opacity="0.42">
<path opacity="0.42" d="M248.715 667.337L226.072 663.848L227.81 651.035L253.601 655.77L248.715 667.337Z" fill="#873A34"/>
</g>
<path d="M212.105 718.129C213.007 724.804 215.868 743.558 215.868 743.558L226.073 743.742L225.498 718.365L212.105 718.129Z" fill="#1C1A36"/>
<path d="M215.881 698.72C213.464 698.51 201.875 713.605 212.51 721.081C223.145 728.556 225.798 727.599 227.13 728.7C228.463 729.802 227.862 714.432 225.014 709.632C222.165 704.845 219.578 699.035 215.894 698.707L215.881 698.72Z" fill="#1C1A36"/>
<path d="M280.19 743.652C273.932 743.639 241.895 744.137 240.641 742.957C239.386 741.777 232.736 734.039 233.206 732.99C233.677 731.941 254.699 727.062 260.043 727.534C265.387 728.006 267.268 730.603 270.561 731.823C273.853 733.029 279.85 733.646 280.321 735.455C280.804 737.252 284.254 743.665 280.177 743.652H280.19Z" fill="#1C1A36"/>
<path d="M357.107 364.598C363.327 378.132 393.142 463.902 399.714 503.115C406.286 542.328 412.858 653.423 412.858 660.374C412.858 667.325 412.074 668.361 407.214 668.322C400.145 668.256 373.818 668.938 369.337 668.571C366.489 668.335 364.816 667.207 363.98 662.433C363.131 657.646 324.012 484.047 312.253 474.67C300.494 465.306 294.014 364.532 306.139 364.611C325.528 364.742 357.121 364.611 357.121 364.611L357.107 364.598Z" fill="#9854CB"/>
<path d="M276.257 363.863C229.26 424.741 235.218 502.131 235.924 521.921C236.891 548.99 214.405 639.98 212.223 649.947C210.368 658.433 209.701 658.682 216.887 659.718C224.086 660.754 253.275 663.036 259.128 663.6C264.982 664.164 266.327 663.98 267.712 659.18C269.398 653.357 301.892 526.328 310.842 486.735C318.55 452.662 328.964 388.531 330.714 370.145C331.302 363.968 332.583 363.417 324.992 363.85C305.237 364.977 276.244 363.85 276.244 363.85L276.257 363.863Z" fill="#DDACF5"/>
<path d="M269.15 404.073C267.02 404.073 264.982 403.85 263.048 403.404C262.343 403.246 261.911 402.538 262.068 401.83C262.225 401.122 262.931 400.689 263.636 400.846C271.227 402.617 280.896 400.466 289.506 395.063C300.298 388.296 307.837 377.515 310.751 364.715C310.907 364.007 311.613 363.561 312.318 363.732C313.024 363.889 313.468 364.597 313.298 365.305C310.228 378.787 302.284 390.145 290.904 397.292C283.875 401.712 276.114 404.086 269.163 404.086L269.15 404.073Z" fill="#1B1464"/>
<path d="M293.386 364.662H356.61C357.054 364.662 357.407 364.308 357.407 363.862C357.407 363.417 357.054 363.062 356.61 363.062H293.386C292.942 363.062 292.589 363.417 292.589 363.862C292.589 364.308 292.942 364.662 293.386 364.662Z" fill="#1C1A36"/>
<path d="M220.546 654.3C220.454 654.3 220.363 654.3 220.272 654.273C219.566 654.116 219.122 653.421 219.279 652.713C219.566 651.414 220.193 648.726 221.069 645.001C226.687 621.106 243.776 548.385 242.953 525.015C242.914 523.939 242.862 522.693 242.797 521.303C241.764 497.802 238.616 426.274 283.339 368.346C283.783 367.769 284.606 367.664 285.168 368.11C285.743 368.556 285.848 369.382 285.403 369.946C241.268 427.113 244.391 497.92 245.41 521.185C245.475 522.589 245.527 523.834 245.566 524.923C246.416 548.647 229.261 621.618 223.616 645.605C222.741 649.316 222.114 651.992 221.826 653.277C221.696 653.893 221.147 654.313 220.546 654.313V654.3Z" fill="#1B1464"/>
<path d="M261.233 657.527C261.233 657.527 261.167 657.527 261.128 657.527L217.855 654.091C217.136 654.039 216.601 653.396 216.653 652.675C216.705 651.954 217.319 651.416 218.064 651.468L261.337 654.904C262.056 654.957 262.591 655.6 262.539 656.321C262.487 657.003 261.912 657.527 261.233 657.527Z" fill="#1B1464"/>
<path d="M408.115 664.346H374.144C373.426 664.346 372.838 663.755 372.838 663.034C372.838 662.313 373.426 661.723 374.144 661.723H408.115C408.834 661.723 409.421 662.313 409.421 663.034C409.421 663.755 408.834 664.346 408.115 664.346Z" fill="#1B1464"/>
<path d="M375.53 664.347C374.903 664.347 374.354 663.901 374.249 663.258L374.093 662.314C359.681 577.501 335.889 475.587 316.238 467.456C315.572 467.18 315.258 466.419 315.533 465.737C315.807 465.069 316.578 464.754 317.244 465.029C343.193 475.757 369.298 618.406 376.68 661.868L376.836 662.799C376.967 663.508 376.484 664.19 375.778 664.321C375.7 664.334 375.621 664.347 375.556 664.347H375.53Z" fill="#1B1464"/>
<path d="M225.707 726.301C230.385 730.038 233.324 733.042 235.545 735.783L225.707 726.301Z" fill="#929251"/>
<path d="M391.325 725.434C396.003 729.171 398.942 732.175 401.164 734.916L391.325 725.434Z" fill="#929251"/>
<path d="M245.514 368.766C234.238 393.028 227.693 401.527 233.677 404.333C239.661 407.14 264.799 411.94 270.783 413.146C276.767 414.353 276.362 412.74 280.752 406.34C285.142 399.927 312.018 342.537 314.866 306.891C317.714 271.258 316.708 254.93 313.651 245.055C311.691 238.72 314.069 240.648 308.778 240.635C301.605 240.622 281.327 241.658 274.52 245.304C262.369 251.835 264.603 257.54 262.695 281.199C258.305 335.612 245.514 368.766 245.514 368.766Z" fill="#27104E"/>
<path d="M368.383 398.117C358.413 398.117 345.714 380.78 344.028 364.465C343.95 363.744 344.473 363.259 345.191 363.193C345.923 363.127 346.55 363.403 346.628 364.124C348.275 380.019 360.687 396.819 368.513 395.508H368.539C369.245 395.508 369.833 396.072 369.846 396.793C369.859 397.514 369.284 398.131 368.565 398.131H368.383V398.117Z" fill="#1B1464"/>
<path d="M198.609 428.884C194.48 437.356 193.918 439.822 197.694 443.205C200.385 445.605 203.064 445.946 204.514 450.51C207.297 459.271 203.534 460.701 201.705 457.802C200.385 455.717 197.289 453.055 194.937 461.737C194.205 464.425 192.703 467.835 189.881 467.927C185.295 468.058 186.575 464.504 185.804 464.15C185.033 463.796 183.452 465.264 182.081 464.478C180.722 463.691 181.179 462.287 180.33 461.763C179.481 461.238 178.579 462.904 176.92 462.104C175.247 461.304 176.24 459.061 175.077 458.523C173.915 457.986 173.209 459.232 172.033 458.733C168.414 457.225 168.897 449.12 171.889 444.019C173.131 441.894 177.011 437.186 180.251 435.192C182.342 433.907 183.152 425.448 184.093 423.31C185.033 421.173 200.189 425.658 198.609 428.897V428.884Z" fill="#E66E54"/>
<path d="M175.09 459.075C174.972 459.075 174.855 459.062 174.75 459.022C174.058 458.826 173.64 458.104 173.836 457.409L176.018 449.409C176.214 448.714 176.932 448.308 177.625 448.491C178.317 448.688 178.735 449.409 178.539 450.104L176.357 458.104C176.201 458.681 175.678 459.075 175.103 459.075H175.09Z" fill="#873A34"/>
<path d="M180.474 462.524C180.356 462.524 180.238 462.511 180.134 462.472C179.441 462.275 179.023 461.554 179.219 460.859L181.401 452.859C181.597 452.163 182.316 451.757 183.008 451.941C183.701 452.137 184.119 452.859 183.923 453.554L181.741 461.554C181.584 462.131 181.062 462.524 180.487 462.524H180.474Z" fill="#873A34"/>
<path d="M185.791 464.792C185.673 464.792 185.556 464.779 185.451 464.739C184.759 464.543 184.341 463.821 184.537 463.126L186.719 455.126C186.915 454.431 187.633 454.025 188.326 454.208C189.018 454.405 189.436 455.126 189.24 455.821L187.058 463.821C186.902 464.398 186.379 464.792 185.804 464.792H185.791Z" fill="#873A34"/>
<path d="M239.295 354.958C225.498 378.027 207.075 424.427 204.306 430.525C201.575 436.558 202.738 437.043 199.458 436.151C191.776 434.053 180.722 430.25 180.722 430.25C180.722 430.25 177.221 429.987 178.37 424.846C179.39 420.256 187.033 373.647 193.474 347.194C194.258 343.968 195.029 341.043 195.761 338.538C197.342 333.135 200.739 325.647 205.429 317.201C226.778 278.775 274.938 220.834 300.965 252.86C333.367 292.742 253.092 331.889 239.295 354.971V354.958Z" fill="#9854CB"/>
<path d="M344.329 208.872C344.212 208.243 349.843 214.013 356.807 214.21C360.426 214.315 356.127 219.666 354.024 218.944C350.209 217.633 345.165 213.161 344.329 208.872Z" fill="white"/>
<path d="M753.935 669.448C753.935 685.605 768.098 698.707 784.195 698.707C784.312 698.707 785.71 698.707 785.71 698.707V743.677C785.71 751.074 777.662 756.149 770.306 756.149H598.154C590.785 756.149 584.514 751.061 584.514 743.677V580.412H783.829L783.737 639.927C783.737 639.927 783.306 640.058 783.189 640.058C767.079 640.058 753.948 653.278 753.948 669.448H753.935Z" fill="#9854CB"/>
<path d="M714.672 580.873C714.672 597.03 701.828 610.092 685.731 610.092C669.635 610.092 656.582 596.991 656.582 580.833C656.582 563.496 669.412 551.391 685.522 551.391C701.632 551.391 714.685 564.715 714.685 580.873H714.672Z" fill="#9854CB"/>
<path d="M981.693 417.935V579.102H783.711L783.776 521.397C783.776 521.397 783.842 521.555 783.92 521.515C784.038 521.45 784.22 521.437 784.299 521.437C793.628 521.437 801.937 517.043 807.281 510.21C811.175 505.24 813.5 498.958 813.5 492.151C813.5 477.909 803.061 466.433 789.551 463.81C787.735 463.456 785.867 463.679 783.959 463.679C783.842 463.679 784.416 463.679 784.416 463.679V417.922C784.416 417.109 783.829 415.535 783.985 414.774C785.24 408.584 790.688 403.352 797.247 403.352H969.399C970.679 403.352 972.077 404.322 973.201 404.637C978.14 406.565 981.706 412.23 981.706 417.935H981.693Z" fill="#9854CB"/>
<path d="M912.342 584.956C914.921 569.006 904.13 553.976 888.24 551.387C872.349 548.798 857.376 559.629 854.796 575.58C852.217 591.531 863.008 606.56 878.899 609.149C894.789 611.738 909.762 600.907 912.342 584.956Z" fill="#9854CB"/>
<path d="M783.906 698C783.906 698 783.997 698 784.037 698L784.089 742.918C784.089 749.423 791.393 754.839 799.755 754.839H968.836C977.198 754.839 982.999 749.882 982.999 743.364V579.102H912.602C912.262 597.462 899.353 607.718 883.452 607.718C867.552 607.718 854.656 597.462 854.303 579.102H783.906C783.906 579.102 783.749 638.065 783.723 638.065C767.626 638.065 753.934 651.574 753.934 667.731C753.934 683.888 767.809 698 783.906 698Z" fill="#64379F"/>
<path d="M792.242 425.358V463.443C790.936 463.089 787.173 463.679 785.252 463.679C785.135 463.679 785.709 463.679 785.709 463.679V421.857C787.016 421.765 785.291 421.699 785.422 421.621C785.997 421.319 786.31 421.148 787.003 421.148C788.153 421.148 789.734 421.621 790.478 422.381C791.236 423.142 792.242 424.191 792.242 425.345V425.358Z" fill="white"/>
<path d="M891.424 603.376C891.424 605.684 893.305 607.586 895.618 607.586H950.101C952.401 607.586 954.295 605.697 954.295 603.376C954.295 601.068 952.414 599.166 950.101 599.166H895.618C893.318 599.166 891.424 601.055 891.424 603.376Z" fill="white"/>
<path d="M859.884 517.54C861.334 519.337 863.987 519.612 865.777 518.156L908.057 483.665C909.847 482.209 910.121 479.547 908.671 477.75C907.221 475.953 904.568 475.678 902.778 477.134L860.498 511.625C858.708 513.081 858.434 515.743 859.884 517.54Z" fill="white"/>
<path d="M869.407 593.868C869.407 597.632 869.172 601.357 868.715 605.003C868.715 605.029 868.715 605.068 868.702 605.095C863.214 648.281 826.448 681.671 781.92 681.671C773.192 681.671 764.752 680.386 756.795 677.986C756.73 677.986 756.678 677.96 756.625 677.934C720.643 667.049 694.446 633.527 694.446 593.855C694.446 580.688 697.334 568.203 702.508 557.003C702.534 556.924 702.573 556.845 702.625 556.767C708.008 560.596 711.967 566.301 713.6 573.304C713.6 573.331 713.613 573.475 713.627 573.501C714.175 575.665 714.476 577.777 714.528 580.4H784.925L784.86 521.226C784.86 521.226 785.043 521.528 785.095 521.619C785.147 521.619 785.5 521.449 785.605 521.449C794.934 521.449 803.243 517.055 808.587 510.223C808.652 510.236 808.705 510.249 808.77 510.275C843.956 521.646 869.407 554.76 869.407 593.868Z" fill="#FFC238"/>
<path d="M819.132 644.66H744.711C738.792 644.66 727.7 658.706 729.672 664.306C734.428 677.814 733.958 700.162 733.958 700.162C733.958 706.103 738.805 710.968 744.724 710.968H819.145C825.064 710.968 829.911 706.103 829.911 700.162C829.911 700.162 828.605 677.814 833.727 664.647C835.882 659.113 825.064 644.66 819.145 644.66H819.132Z" fill="#FFC238"/>
<path d="M738.439 700.609H825.416C829.114 700.609 832.145 703.652 832.145 707.363C832.145 711.075 829.114 714.118 825.416 714.118H738.439C734.741 714.118 731.71 711.075 731.71 707.363C731.71 703.652 734.741 700.609 738.439 700.609Z" fill="white"/>
<path d="M815.368 714.117H748.068C744.77 714.117 742.097 716.801 742.097 720.111V721.619C742.097 724.929 744.77 727.612 748.068 727.612H815.368C818.666 727.612 821.339 724.929 821.339 721.619V720.111C821.339 716.801 818.666 714.117 815.368 714.117Z" fill="white"/>
<path d="M802.826 701.068H800.213C800.213 678.773 806.746 664.95 811.998 653.737C817.264 642.511 820.726 634.996 814.18 625.855C811.175 621.658 808.797 619.547 806.929 619.481C804.943 619.429 803.061 621.711 800.853 624.386C797.378 628.609 792.622 634.379 784.051 634.734C775.506 635.114 770.515 629.763 766.478 625.317C763.682 622.235 761.252 619.77 758.456 619.77H758.416C756.051 619.77 753.282 621.461 749.924 625.317C740.791 635.796 749.871 653.461 758.652 670.471C764.518 681.842 770.058 691.901 770.058 701.081H767.445C767.445 693.212 762.049 682.642 756.326 671.573C747.141 653.776 737.655 635.507 747.951 623.678C751.884 619.166 755.189 617.147 758.39 617.147H758.456C762.401 617.147 765.315 620.15 768.398 623.547C772.253 627.796 776.63 632.491 783.92 632.215C791.315 631.901 795.3 627.022 798.815 622.76C801.454 619.547 803.767 616.806 806.994 616.858C809.816 616.95 812.678 619.232 816.284 624.255C823.744 634.655 819.798 643.232 814.35 654.865C809.215 665.842 802.813 678.786 802.813 701.081L802.826 701.068Z" fill="white"/>
<path d="M807.869 526.249C820.425 529.868 846.935 555.862 853.808 573.659C858.942 586.944 853.429 587.521 846.569 578.629C839.71 569.737 821.157 542.249 805.727 533.934C790.296 525.619 799.729 523.914 807.856 526.262L807.869 526.249Z" fill="#FFF3D7"/>
<path d="M771.939 757.461H599.787C592.548 757.461 584.5 751.796 584.5 743.665V579.101H656.047C656.635 563.39 669.596 551.18 685.823 551.18C693.571 551.18 699.725 554.144 703.527 556.858C708.806 560.622 712.66 565.999 714.463 572.557H714.672L714.79 573.33C715.221 575.18 715.495 577.632 715.587 579.114H786.089L788.323 640.491V640.753H787.67L787.578 641.278L787.382 641.199C786.298 641.121 786.089 641.042 785.919 640.937C785.866 640.924 785.448 640.871 785.331 640.871C769.391 640.871 756.417 653.698 756.417 669.475C756.417 673.107 756.913 676.242 757.919 679.075C760.101 685.252 764.321 690.497 769.783 693.855L769.926 693.973C774.343 696.648 779.451 698.078 784.704 698.078C784.782 698.078 784.926 697.947 784.991 697.947L785.03 698.471H785.71V743.691C785.71 751.428 779.66 757.487 771.939 757.487V757.461ZM585.807 580.412V743.665C585.807 751.022 593.176 756.15 599.787 756.15H771.939C778.929 756.15 784.403 750.668 784.403 743.665V699.35C779.007 699.297 773.742 697.802 769.182 695.022L769.025 694.904C763.341 691.376 758.951 685.907 756.678 679.481C755.62 676.504 755.097 673.225 755.097 669.435C755.097 652.937 768.659 639.521 785.331 639.521C785.331 639.521 786.219 639.56 786.546 639.73C786.559 639.73 786.768 639.73 786.977 639.757L784.808 580.399H714.306V579.809C714.267 578.721 714.071 576.465 713.745 575.153H713.601L713.483 574.589C711.902 567.835 708.1 561.999 702.756 558.196C699.111 555.599 693.206 552.478 685.81 552.478C670.079 552.478 657.563 564.452 657.314 579.757V580.399H585.793L585.807 580.412Z" fill="#181C28"/>
<path d="M880.515 609.213C879.051 609.213 877.327 609.147 875.641 608.662C872.963 607.915 870.115 606.997 867.567 605.344C864.287 603.233 861.714 600.833 859.701 598C859.414 597.62 859.179 596.924 858.944 596.203C858.787 595.731 858.604 595.206 858.473 594.983C855.743 590.538 854.279 585.2 854.096 579.102C831.493 579.115 808.889 579.128 786.286 579.154H784.979C784.535 559.469 784.078 539.784 783.634 520.085H784.849L784.953 520.623C793.773 520.584 801.899 516.623 807.295 509.738C811.267 504.662 813.371 498.564 813.371 492.125C813.371 478.525 803.52 466.748 789.944 464.125C788.39 463.823 786.704 463.692 784.47 463.692H783.085V417.948C783.085 416.545 783.111 415.049 783.255 414.328C784.627 407.561 791.133 402.053 797.745 402.053H969.896C970.837 402.053 971.712 402.577 972.47 403.036C972.928 403.312 973.372 403.574 973.738 403.679C979.095 405.2 982.975 411.194 982.975 417.935V579.088H913.636C913.14 597.383 901.511 609.16 883.86 609.16C883.285 609.16 882.723 609.16 882.161 609.187C881.599 609.187 881.038 609.213 880.489 609.213H880.515ZM786.926 577.79H855.39V578.433C855.481 584.557 856.892 589.895 859.597 594.288C859.806 594.642 859.989 595.193 860.185 595.77C860.368 596.308 860.59 596.99 860.76 597.213C862.68 599.915 865.137 602.197 868.272 604.216C870.676 605.777 873.394 606.656 875.981 607.377C877.523 607.81 879.13 607.875 880.502 607.875C881.051 607.875 881.599 607.875 882.148 607.862C882.723 607.862 883.298 607.836 883.873 607.836C900.949 607.836 912.134 596.282 912.356 578.42V577.777H981.682V417.935C981.682 411.771 978.193 406.302 973.398 404.938C972.862 404.781 972.327 404.466 971.804 404.151C971.151 403.758 970.484 403.351 969.896 403.351H797.745C791.721 403.351 785.79 408.387 784.535 414.577C784.392 415.272 784.392 417.174 784.392 417.895V462.367H784.47C786.796 462.367 788.546 462.512 790.193 462.826C804.382 465.58 814.677 477.895 814.677 492.112C814.677 498.853 812.482 505.213 808.328 510.525C802.696 517.725 794.204 521.869 785.006 521.921L786.926 577.777V577.79Z" fill="#181C28"/>
<path d="M681.264 426.326C681.264 426.326 681.186 426.3 681.146 426.3L692.383 388.634C694.003 383.231 689.404 376.543 682.453 374.444L542.129 332.084C535.191 329.985 528.776 333.356 527.156 338.759L489.344 464.949C488.534 467.651 486.652 473.946 486.652 473.946C486.652 473.946 495.08 476.49 498.555 477.539L545.238 491.638C549.589 478.142 563.347 471.205 576.543 475.192C589.74 479.179 597.396 492.582 593.62 506.247L638.892 519.913C645.882 522.024 652.049 523.887 652.049 523.887L666.63 475.008C666.63 475.008 666.683 475.52 666.709 475.533C680.794 479.821 694.695 472.097 698.719 458.68C702.744 445.264 694.643 430.392 681.277 426.366L681.264 426.326Z" fill="#DDACF5"/>
<path d="M668.813 462.169C639.494 453.316 608.999 463.139 590.015 484.792C594.196 490.719 595.764 498.418 593.608 506.208L638.88 519.873C645.87 521.985 652.037 523.847 652.037 523.847L666.618 474.969C666.618 474.969 666.671 475.48 666.697 475.493C674.967 478.011 683.159 476.385 689.339 471.913C683.172 467.742 676.3 464.424 668.813 462.169Z" fill="#FFC238"/>
<path d="M623.436 437.355C621.776 438.483 619.516 438.05 618.392 436.385L591.882 397.159C590.759 395.493 591.19 393.224 592.849 392.096C594.508 390.969 596.769 391.401 597.892 393.067L624.402 432.293C625.526 433.959 625.095 436.228 623.436 437.355Z" fill="white"/>
</g>
<defs>
<clipPath id="clip0_704_2748">
<rect width="836" height="649" fill="white" transform="translate(147 130)"/>
</clipPath>
</defs>
</svg>
