<svg width="140" height="109" viewBox="0 0 140 109" fill="none" xmlns="http://www.w3.org/2000/svg">
<path d="M114.103 90.4155C126.49 90.4155 136.532 80.659 136.532 68.6236C136.532 56.5883 126.49 46.8318 114.103 46.8318C101.716 46.8318 91.6738 56.5883 91.6738 68.6236C91.6738 80.659 101.716 90.4155 114.103 90.4155Z" stroke="#64379F" stroke-width="5" stroke-linecap="round" stroke-linejoin="round"/>
<path d="M118.316 58.6131C117.181 57.8277 115.706 57.3523 114.104 57.3523C110.487 57.3523 107.559 59.7637 107.559 62.7331C107.559 65.7025 110.487 68.1139 114.104 68.1139" stroke="#64379F" stroke-width="5" stroke-linecap="round" stroke-linejoin="round"/>
<path d="M108.43 77.8006C109.72 78.9305 111.557 79.6401 113.599 79.6401C117.492 79.6401 120.655 77.0565 120.655 73.8735C120.655 70.6905 117.499 68.1138 113.599 68.1138" stroke="#64379F" stroke-width="5" stroke-linecap="round" stroke-linejoin="round"/>
<path d="M113.814 80.04V82.9475" stroke="#64379F" stroke-width="5" stroke-linecap="round" stroke-linejoin="round"/>
<path d="M113.814 54.2935V56.822" stroke="#64379F" stroke-width="5" stroke-linecap="round" stroke-linejoin="round"/>
<path d="M25.1595 68.8855C37.5467 68.8855 47.5886 59.1289 47.5886 47.0936C47.5886 35.0583 37.5467 25.3018 25.1595 25.3018C12.7723 25.3018 2.73047 35.0583 2.73047 47.0936C2.73047 59.1289 12.7723 68.8855 25.1595 68.8855Z" stroke="#64379F" stroke-width="5" stroke-linecap="round" stroke-linejoin="round"/>
<path d="M29.3665 37.0833C28.232 36.2979 26.7641 35.8225 25.1544 35.8225C21.538 35.8225 18.6094 38.2339 18.6094 41.2033C18.6094 44.1727 21.538 46.5841 25.1544 46.5841" stroke="#64379F" stroke-width="5" stroke-linecap="round" stroke-linejoin="round"/>
<path d="M19.4883 56.2708C20.7789 57.4007 22.6154 58.1104 24.6577 58.1104C28.5507 58.1104 31.7133 55.5268 31.7133 52.3438C31.7133 49.1608 28.5578 46.5771 24.6577 46.5771" stroke="#64379F" stroke-width="5" stroke-linecap="round" stroke-linejoin="round"/>
<path d="M24.8711 58.51V61.4243" stroke="#64379F" stroke-width="5" stroke-linecap="round" stroke-linejoin="round"/>
<path d="M24.8711 32.7634V35.2919" stroke="#64379F" stroke-width="5" stroke-linecap="round" stroke-linejoin="round"/>
<path d="M32.668 105.834H106.592" stroke="#64379F" stroke-width="5" stroke-linecap="round" stroke-linejoin="round"/>
<path d="M12.0117 3L127.249 31.8399" stroke="#64379F" stroke-width="5" stroke-linecap="round" stroke-linejoin="round"/>
<path d="M69.6328 17.4199V105.834" stroke="#64379F" stroke-width="5" stroke-linecap="round" stroke-linejoin="round"/>
<path d="M59.459 105.834C59.459 100.378 64.0114 95.9546 69.6276 95.9546C75.2437 95.9546 79.7962 100.378 79.7962 105.834H59.459Z" fill="white" stroke="#64379F" stroke-width="5" stroke-linecap="round" stroke-linejoin="round"/>
<path d="M114.102 45.3918V28.6638" stroke="#64379F" stroke-width="5" stroke-linecap="round" stroke-linejoin="round"/>
<path d="M25.1602 23.862V6.8584" stroke="#64379F" stroke-width="5" stroke-linecap="round" stroke-linejoin="round"/>
</svg>
