<svg width="114" height="108" viewBox="0 0 114 108" fill="none" xmlns="http://www.w3.org/2000/svg">
<path d="M8.14335 86.6372H31.539C34.627 86.6372 37.1382 89.126 37.1382 92.1865V104.094C37.1382 104.596 36.7302 105 36.2238 105H3.45154C2.94508 105 2.53711 104.596 2.53711 104.094V92.1865C2.53711 89.126 5.0483 86.6372 8.1363 86.6372H8.14335Z" stroke="#64379F" stroke-width="5" stroke-linecap="round" stroke-linejoin="round"/>
<path d="M28.364 70.958C28.364 66.3638 24.6007 62.634 19.9652 62.634C15.3297 62.634 11.5664 66.3638 11.5664 70.958C11.5664 75.5522 15.3297 79.2819 19.9652 79.2819C24.6007 79.2819 28.364 75.5522 28.364 70.958Z" stroke="#64379F" stroke-width="5" stroke-linecap="round" stroke-linejoin="round"/>
<path d="M82.3269 86.6372H105.723C108.811 86.6372 111.322 89.126 111.322 92.1865V104.094C111.322 104.596 110.914 105 110.407 105H77.6351C77.1287 105 76.7207 104.596 76.7207 104.094V92.1865C76.7207 89.126 79.2319 86.6372 82.3199 86.6372H82.3269Z" stroke="#64379F" stroke-width="5" stroke-linecap="round" stroke-linejoin="round"/>
<path d="M102.548 70.958C102.548 66.3638 98.7843 62.634 94.1488 62.634C89.5133 62.634 85.75 66.3638 85.75 70.958C85.75 75.5522 89.5133 79.2819 94.1488 79.2819C98.7843 79.2819 102.548 75.5522 102.548 70.958Z" stroke="#64379F" stroke-width="5" stroke-linecap="round" stroke-linejoin="round"/>
<path d="M45.1121 27.0032H68.5077C71.5957 27.0032 74.107 29.492 74.107 32.5525V45.8959C74.107 46.3978 73.699 46.8022 73.1925 46.8022H40.4203C39.9138 46.8022 39.5059 46.3978 39.5059 45.8959V32.5525C39.5059 29.492 42.0171 27.0032 45.1051 27.0032H45.1121Z" stroke="#64379F" stroke-width="5" stroke-linecap="round" stroke-linejoin="round"/>
<path d="M65.3327 11.3239C65.3327 6.72974 61.5695 3 56.934 3C52.2984 3 48.5352 6.72974 48.5352 11.3239C48.5352 15.9181 52.2984 19.6479 56.934 19.6479C61.5695 19.6479 65.3327 15.9181 65.3327 11.3239Z" stroke="#64379F" stroke-width="5" stroke-linecap="round" stroke-linejoin="round"/>
<path d="M56.9277 58.0122V73.1543" stroke="#64379F" stroke-width="5" stroke-linecap="round" stroke-linejoin="round"/>
<path d="M45.2617 84.72L56.9314 73.1543" stroke="#64379F" stroke-width="5" stroke-linecap="round" stroke-linejoin="round"/>
<path d="M68.6045 84.72L56.9277 73.1543" stroke="#64379F" stroke-width="5" stroke-linecap="round" stroke-linejoin="round"/>
</svg>
