<svg width="123" height="103" viewBox="0 0 123 103" fill="none" xmlns="http://www.w3.org/2000/svg">
<g clip-path="url(#clip0_176_2431)">
<path d="M110.201 51.9241L13.3613 6.84863" stroke="#64379F" stroke-width="5" stroke-linecap="round" stroke-linejoin="round"/>
<path d="M22.8007 25.906H10.5117V92.3752H22.8007V25.906Z" stroke="#64379F" stroke-width="5" stroke-linecap="round" stroke-linejoin="round"/>
<path d="M45.0761 36.3708H32.7871V92.3752H45.0761V36.3708Z" stroke="#64379F" stroke-width="5" stroke-linecap="round" stroke-linejoin="round"/>
<path d="M67.3495 46.8357H55.0605V92.3592H67.3495V46.8357Z" stroke="#64379F" stroke-width="5" stroke-linecap="round" stroke-linejoin="round"/>
<path d="M89.6405 57.3164H77.3516V92.3751H89.6405V57.3164Z" stroke="#64379F" stroke-width="5" stroke-linecap="round" stroke-linejoin="round"/>
<path d="M111.914 67.7812H99.625V92.3752H111.914V67.7812Z" stroke="#64379F" stroke-width="5" stroke-linecap="round" stroke-linejoin="round"/>
<path d="M120.954 101.544H1.45703V20.0496" stroke="#64379F" stroke-width="5" stroke-linecap="round" stroke-linejoin="round"/>
<path d="M67.2996 30.385C67.8463 27.7096 66.1207 25.0975 63.4453 24.5507C60.7699 24.004 58.1578 25.7296 57.6111 28.405C57.0643 31.0804 58.7899 33.6925 61.4654 34.2392C64.1408 34.786 66.7528 33.0604 67.2996 30.385Z" fill="white" stroke="#64379F" stroke-width="5" stroke-linecap="round" stroke-linejoin="round"/>
<path d="M114.953 51.988C115.033 49.2518 112.889 46.9796 110.153 46.8996C107.417 46.8196 105.145 48.9638 105.065 51.7C104.985 54.4362 107.129 56.7084 109.865 56.7884C112.601 56.8684 114.873 54.7242 114.953 51.988Z" fill="white" stroke="#64379F" stroke-width="5" stroke-linecap="round" stroke-linejoin="round"/>
<path d="M17.3616 6.56053C17.4416 3.82432 15.2975 1.55214 12.5613 1.47214C9.82505 1.39213 7.55288 3.5363 7.47287 6.27251C7.39286 9.00872 9.53703 11.2809 12.2732 11.3609C15.0095 11.4409 17.2816 9.29675 17.3616 6.56053Z" fill="white" stroke="#64379F" stroke-width="5" stroke-linecap="round" stroke-linejoin="round"/>
</g>
<defs>
<clipPath id="clip0_176_2431">
<rect width="122.425" height="103" fill="white"/>
</clipPath>
</defs>
</svg>
