<svg width="114" height="109" viewBox="0 0 114 109" fill="none" xmlns="http://www.w3.org/2000/svg">
<path d="M44.7266 67.1421L90.3756 23.1565" stroke="#64379F" stroke-width="5" stroke-linecap="round" stroke-linejoin="round"/>
<path d="M69.2378 52.6002C71.5444 56.5797 72.8625 61.1624 72.8625 66.0414C72.8625 81.2978 60.0278 93.6701 44.1891 93.6701C28.3503 93.6701 15.5156 81.3031 15.5156 66.0414C15.5156 50.7798 28.3503 38.4128 44.1891 38.4128C50.4719 38.4128 56.2768 40.3655 60.9999 43.6676" stroke="#64379F" stroke-width="5" stroke-linecap="round" stroke-linejoin="round"/>
<path d="M70.1217 34.8832C63.0206 29.3903 54.0029 26.0935 44.1888 26.0935C21.2874 26.0935 2.72461 43.9799 2.72461 66.0468C2.72461 88.1137 21.2874 106 44.1888 106C67.0902 106 85.6529 88.1137 85.6529 66.0468C85.6529 57.7492 83.0223 50.039 78.5299 43.6518" stroke="#64379F" stroke-width="5" stroke-linecap="round" stroke-linejoin="round"/>
<path d="M60.9999 43.673C56.2768 40.3709 50.4719 38.4182 44.1891 38.4182C28.3558 38.4182 15.5156 50.7852 15.5156 66.0468C15.5156 81.3084 28.3503 93.6754 44.1891 93.6754C60.0278 93.6754 72.8625 81.3084 72.8625 66.0468C72.8625 61.1678 71.5444 56.585 69.2378 52.6056" stroke="#64379F" stroke-width="5" stroke-linecap="round" stroke-linejoin="round"/>
<path d="M59.7963 61.6968C60.2082 63.078 60.4388 64.5385 60.4388 66.0467C60.4388 74.6935 53.162 81.7052 44.1882 81.7052C35.2143 81.7052 27.9375 74.6935 27.9375 66.0467C27.9375 57.3998 35.2143 50.3882 44.1882 50.3882C47.0275 50.3882 49.6966 51.092 52.0197 52.325" stroke="#64379F" stroke-width="5" stroke-linecap="round" stroke-linejoin="round"/>
<path d="M92.5517 35.1372L77.6191 35.4495L77.9431 21.0557L96.6871 3L96.3576 17.3885L111.296 17.0762L92.5517 35.1372Z" stroke="#64379F" stroke-width="5" stroke-linecap="round" stroke-linejoin="round"/>
</svg>
