<svg width="139" height="103" viewBox="0 0 139 103" fill="none" xmlns="http://www.w3.org/2000/svg">
<g clip-path="url(#clip0_176_2423)">
<path d="M0.681393 41.9695L61.0312 102.319C61.4476 102.736 62.1227 102.736 62.5391 102.319L102.319 62.539C102.736 62.1226 102.736 61.4475 102.319 61.0311L41.9696 0.681296C41.5532 0.264883 40.878 0.264877 40.4616 0.681288L0.681389 40.4615C0.264978 40.8779 0.264979 41.5531 0.681393 41.9695Z" stroke="#64379F" stroke-width="5" stroke-linecap="round" stroke-linejoin="round"/>
<path d="M89.8236 75.0333L27.9668 13.1765" stroke="#64379F" stroke-width="5" stroke-linecap="round" stroke-linejoin="round"/>
<path d="M100.117 59.2741C100.117 59.2741 97.3844 66.7908 85.2579 60.4701C79.0913 57.2551 73.9544 54.8509 70.3948 53.2616C67.3986 51.9236 63.8835 53.2089 62.4442 56.1604C61.1428 58.8322 61.9577 62.0554 64.3741 63.7825L88.1567 80.7944C88.1567 80.7944 97.7209 88.3112 112.069 88.3112C112.069 88.3112 119.756 88.1409 123.514 91.8992L137.692 77.7213C137.692 77.7213 133.764 68.3274 129.495 64.7393L115.71 50.9547C107.784 43.0285 97.3519 38.066 86.1944 37.0159C83.0118 36.7159 80.0684 36.5821 77.7412 36.5537L100.117 59.2701V59.2741Z" fill="white" stroke="#64379F" stroke-width="5" stroke-linecap="round" stroke-linejoin="round"/>
</g>
<defs>
<clipPath id="clip0_176_2423">
<rect width="138.062" height="103" fill="white"/>
</clipPath>
</defs>
</svg>
