<svg width="140" height="131" viewBox="0 0 140 131" fill="none" xmlns="http://www.w3.org/2000/svg">
<g clip-path="url(#clip0_176_2377)">
<path d="M137.157 41.0908H2.23035C1.25112 41.0908 0.391796 40.3768 0.165308 39.3587C-0.0611801 38.3477 0.391796 37.2943 1.26444 36.8276L68.7313 0.332294C69.3375 0.00707391 70.0569 0.00707391 70.6631 0.332294L138.123 36.8276C138.996 37.3013 139.456 38.3477 139.222 39.3587C138.996 40.3697 138.137 41.0908 137.157 41.0908ZM11.0767 36.5802H128.311L69.6972 4.87123L11.0767 36.5802Z" fill="#64379F" stroke="#64379F" stroke-width="0.25" stroke-miterlimit="10"/>
<path d="M137.158 130.908H2.23046C1.05805 130.908 0.105469 129.897 0.105469 128.653C0.105469 127.408 1.05805 126.397 2.23046 126.397H137.158C138.33 126.397 139.283 127.408 139.283 128.653C139.283 129.897 138.33 130.908 137.158 130.908Z" fill="#64379F" stroke="#64379F" stroke-width="0.25" stroke-miterlimit="10"/>
<path d="M129.697 120.586H9.6914C8.51899 120.586 7.56641 119.575 7.56641 118.331C7.56641 117.086 8.51899 116.075 9.6914 116.075H129.697C130.869 116.075 131.822 117.086 131.822 118.331C131.822 119.575 130.869 120.586 129.697 120.586Z" fill="#64379F" stroke="#64379F" stroke-width="0.25" stroke-miterlimit="10"/>
<path d="M33.0458 120.586H21.1152C19.9428 120.586 18.9902 119.575 18.9902 118.33V38.8354C18.9902 37.5911 19.9428 36.5801 21.1152 36.5801H33.0458C34.2182 36.5801 35.1708 37.5911 35.1708 38.8354V118.33C35.1708 119.575 34.2182 120.586 33.0458 120.586ZM23.2402 116.075H30.9208V41.0907H23.2402V116.075Z" fill="#64379F" stroke="#64379F" stroke-width="0.25" stroke-miterlimit="10"/>
<path d="M75.6591 120.586H63.7285C62.5561 120.586 61.6035 119.575 61.6035 118.33V38.8354C61.6035 37.5911 62.5561 36.5801 63.7285 36.5801H75.6591C76.8315 36.5801 77.7841 37.5911 77.7841 38.8354V118.33C77.7841 119.575 76.8315 120.586 75.6591 120.586ZM65.8535 116.075H73.5341V41.0907H65.8535V116.075Z" fill="#64379F" stroke="#64379F" stroke-width="0.25" stroke-miterlimit="10"/>
<path d="M118.272 120.586H106.342C105.169 120.586 104.217 119.575 104.217 118.33V38.8354C104.217 37.5911 105.169 36.5801 106.342 36.5801H118.272C119.445 36.5801 120.397 37.5911 120.397 38.8354V118.33C120.397 119.575 119.445 120.586 118.272 120.586ZM108.467 116.075H116.147V41.0907H108.467V116.075Z" fill="#64379F" stroke="#64379F" stroke-width="0.25" stroke-miterlimit="10"/>
<path d="M33.0458 50.6494H21.1152C19.9428 50.6494 18.9902 49.6384 18.9902 48.394V38.8283C18.9902 37.584 19.9428 36.573 21.1152 36.573H33.0458C34.2182 36.573 35.1708 37.584 35.1708 38.8283V48.394C35.1708 49.6384 34.2182 50.6494 33.0458 50.6494ZM23.2402 46.1387H30.9208V41.0837H23.2402V46.1387Z" fill="#64379F" stroke="#64379F" stroke-width="0.25" stroke-miterlimit="10"/>
<path d="M75.6591 50.6494H63.7285C62.5561 50.6494 61.6035 49.6384 61.6035 48.394V38.8283C61.6035 37.584 62.5561 36.573 63.7285 36.573H75.6591C76.8315 36.573 77.7841 37.584 77.7841 38.8283V48.394C77.7841 49.6384 76.8315 50.6494 75.6591 50.6494ZM65.8535 46.1387H73.5341V41.0837H65.8535V46.1387Z" fill="#64379F" stroke="#64379F" stroke-width="0.25" stroke-miterlimit="10"/>
<path d="M118.272 50.6494H106.342C105.169 50.6494 104.217 49.6384 104.217 48.394V38.8283C104.217 37.584 105.169 36.573 106.342 36.573H118.272C119.445 36.573 120.397 37.584 120.397 38.8283V48.394C120.397 49.6384 119.445 50.6494 118.272 50.6494ZM108.467 46.1387H116.147V41.0837H108.467V46.1387Z" fill="#64379F" stroke="#64379F" stroke-width="0.25" stroke-miterlimit="10"/>
</g>
<defs>
<clipPath id="clip0_176_2377">
<rect width="139.337" height="131" fill="white" transform="translate(0.0253906)"/>
</clipPath>
</defs>
</svg>
